<svg width="32" height="31" viewBox="0 0 32 31" fill="none" xmlns="http://www.w3.org/2000/svg">
<path d="M9.33333 11.6667H9.35M16 11.6667H16.0167M22.6667 11.6667H22.6833M11 21.6667H4.33333C3.44928 21.6667 2.60143 21.3155 1.97631 20.6904C1.35119 20.0652 1 19.2174 1 18.3333V5C1 4.11595 1.35119 3.2681 1.97631 2.64298C2.60143 2.01786 3.44928 1.66667 4.33333 1.66667H27.6667C28.5507 1.66667 29.3986 2.01786 30.0237 2.64298C30.6488 3.2681 31 4.11595 31 5V18.3333C31 19.2174 30.6488 20.0652 30.0237 20.6904C29.3986 21.3155 28.5507 21.6667 27.6667 21.6667H19.3333L11 30V21.6667Z" stroke="white" stroke-width="2" stroke-linecap="round" stroke-linejoin="round"/>
</svg>
