<svg width="40" height="40" viewBox="0 0 40 40" fill="none" xmlns="http://www.w3.org/2000/svg">
<path id="Vector" fill-rule="evenodd" clip-rule="evenodd" d="M20 0C8.95182 0 0 9.17796 0 20.5052C0 29.563 5.72917 37.2525 13.6784 39.9625C14.681 40.1494 15.0456 39.5219 15.0456 38.9746C15.0456 38.4873 15.026 37.1991 15.0195 35.4903C9.45312 36.7252 8.28125 32.7403 8.28125 32.7403C7.36979 30.3707 6.0612 29.7366 6.0612 29.7366C4.24479 28.4683 6.19792 28.495 6.19792 28.495C8.20312 28.6419 9.25781 30.6043 9.25781 30.6043C11.0417 33.7415 13.9388 32.8337 15.0781 32.3131C15.2604 30.9848 15.7812 30.0837 16.3477 29.5697C11.9076 29.0557 7.23958 27.2936 7.23958 19.4372C7.23958 17.1945 8.02083 15.3656 9.29688 13.9305C9.09505 13.4165 8.40495 11.3273 9.49219 8.50379C9.49219 8.50379 11.1719 7.95645 14.9935 10.6064C16.5885 10.1525 18.3008 9.92554 20 9.91887C21.6992 9.92554 23.4115 10.1525 25.0065 10.6064C28.8281 7.95645 30.5013 8.50379 30.5013 8.50379C31.5951 11.3273 30.9115 13.4165 30.7031 13.9305C31.9857 15.3656 32.7539 17.1945 32.7539 19.4372C32.7539 27.3136 28.0794 29.0424 23.6263 29.5564C24.3424 30.1838 24.9805 31.4387 24.9805 33.3477C24.9805 36.0911 24.9609 38.3004 24.9609 38.9746C24.9609 39.5219 25.319 40.1627 26.3346 39.9625C34.2773 37.2458 40 29.563 40 20.5052C40 9.17796 31.0482 0 20 0Z" fill="black"/>
</svg>
