<svg width="253" height="42" viewBox="0 0 253 42" fill="none" xmlns="http://www.w3.org/2000/svg">
<path d="M12.144 40.176C10.6507 40.176 9.072 39.9413 7.408 39.472C5.78667 39.0453 4.336 38.32 3.056 37.296C1.81867 36.272 0.986667 34.9067 0.56 33.2C0.517333 32.9867 0.474667 32.752 0.432 32.496C0.432 32.24 0.432 31.984 0.432 31.728C0.432 30.4053 0.730667 29.1253 1.328 27.888C1.92533 26.6507 2.65067 25.712 3.504 25.072H3.568C3.65333 25.072 3.76 25.1787 3.888 25.392C4.05867 25.5627 4.05867 25.6907 3.888 25.776C3.46133 26.2027 3.14133 26.6933 2.928 27.248C2.75733 27.76 2.672 28.3147 2.672 28.912C2.672 29.7227 2.8 30.5547 3.056 31.408C3.35467 32.2187 3.71733 32.9227 4.144 33.52C5.21067 35.0133 6.68267 36.208 8.56 37.104C10.48 37.9573 12.3573 38.384 14.192 38.384C16.7093 38.384 18.6507 37.6373 20.016 36.144C21.424 34.6507 22.128 32.816 22.128 30.64C22.128 29.3173 21.872 27.9947 21.36 26.672C20.6773 24.8373 19.76 23.0453 18.608 21.296C17.4987 19.504 16.4747 17.7547 15.536 16.048C14.7253 14.512 14.32 12.9547 14.32 11.376C14.32 9.712 14.832 8.112 15.856 6.576C16.88 5.21067 18.224 4.12267 19.888 3.312C21.5947 2.45866 23.3227 2.032 25.072 2.032C26.2667 2.032 27.4187 2.24533 28.528 2.672C29.6373 3.09866 30.64 3.80266 31.536 4.784C31.792 5.168 31.92 5.65866 31.92 6.256C31.92 7.10933 31.7493 7.77067 31.408 8.24C31.024 8.79467 30.5973 9.52 30.128 10.416C29.6587 11.312 29.3813 11.9307 29.296 12.272C29.2107 12.3147 28.9973 12.4 28.656 12.528C28.3573 12.6133 28.1653 12.592 28.08 12.464C28.2507 12.1227 28.4853 11.504 28.784 10.608C29.0827 9.712 29.232 8.90133 29.232 8.176C29.232 7.70667 29.2107 7.19467 29.168 6.64C29.168 6.04267 28.8907 5.53067 28.336 5.104C27.824 4.63467 27.1627 4.22933 26.352 3.888C25.5413 3.54667 24.56 3.376 23.408 3.376C21.0613 3.376 19.2693 4.05867 18.032 5.424C16.7947 6.78933 16.176 8.28267 16.176 9.904C16.176 10.7147 16.3467 11.5253 16.688 12.336C17.328 13.872 18.224 15.3227 19.376 16.688C20.528 18.0533 21.6587 19.4613 22.768 20.912C23.92 22.32 24.816 23.856 25.456 25.52C25.8827 26.6293 26.096 27.76 26.096 28.912C26.096 30.576 25.6693 32.0907 24.816 33.456C24.0053 34.8213 22.896 36.016 21.488 37.04C20.1227 38.0213 18.6293 38.7893 17.008 39.344C15.3867 39.8987 13.7653 40.176 12.144 40.176ZM41.851 38.768C40.4857 38.768 39.099 38.7253 37.691 38.64C36.283 38.5973 34.8963 38.4907 33.531 38.32C30.5017 38.064 28.987 37.0827 28.987 35.376C28.987 34.5227 29.3283 33.4987 30.011 32.304C31.6323 29.36 33.2963 26.4373 35.003 23.536C36.7097 20.592 38.395 17.648 40.059 14.704C40.571 13.7653 41.2323 12.592 42.043 11.184C42.8537 9.776 43.6643 8.432 44.475 7.152C44.859 6.55467 45.4137 5.95733 46.139 5.36C46.8643 4.72 47.611 4.31466 48.379 4.144C47.483 4.18667 46.331 4.25067 44.923 4.336C43.5577 4.42133 42.1497 4.592 40.699 4.848C39.291 5.06133 38.011 5.424 36.859 5.936C35.7497 6.40533 34.9603 7.06667 34.491 7.92C34.3203 8.304 34.171 8.688 34.043 9.072C33.915 9.456 33.851 9.84 33.851 10.224C33.851 11.2053 34.1923 11.9093 34.875 12.336C34.9177 12.336 34.939 12.3787 34.939 12.464C34.939 12.5493 34.8537 12.6347 34.683 12.72C34.555 12.8053 34.427 12.8267 34.299 12.784C33.915 12.5707 33.4457 12.0587 32.891 11.248C32.3363 10.3947 31.995 9.69066 31.867 9.136C31.739 8.624 31.675 8.15466 31.675 7.728C31.675 6.61867 32.0377 5.76533 32.763 5.168C33.4883 4.528 34.4057 4.08 35.515 3.824C36.6243 3.52533 37.755 3.35467 38.907 3.312C40.059 3.22666 41.083 3.184 41.979 3.184C44.2403 3.184 46.5017 3.16267 48.763 3.12C51.0243 3.03466 53.2643 2.992 55.483 2.992C56.4643 2.992 57.4243 2.992 58.363 2.992C59.3443 2.992 60.3043 3.03466 61.243 3.12C62.3097 3.16267 63.035 3.376 63.419 3.76C63.8457 4.144 64.059 4.61333 64.059 5.168C64.059 5.85067 63.8243 6.64 63.355 7.536C62.9283 8.38933 62.523 9.17867 62.139 9.904C61.9683 10.2453 61.691 10.5013 61.307 10.672C60.923 10.8 60.7737 10.672 60.859 10.288C61.0723 9.43467 61.179 8.58133 61.179 7.728C61.179 6.96 61.0297 6.27733 60.731 5.68C60.475 5.04 59.963 4.592 59.195 4.336C58.4697 4.12267 57.339 4.016 55.803 4.016C55.2483 4.016 54.6723 4.03733 54.075 4.08C53.5203 4.08 52.9443 4.10133 52.347 4.144C50.6403 4.272 49.4883 4.72 48.891 5.488C47.483 7.45067 46.1177 9.584 44.795 11.888C43.515 14.1493 42.2777 16.304 41.083 18.352C41.0403 18.4373 41.019 18.544 41.019 18.672C41.019 18.928 41.211 19.056 41.595 19.056C43.0883 19.056 44.6883 19.0773 46.395 19.12C48.1443 19.1627 49.6803 19.1627 51.003 19.12C51.3017 19.0773 51.7497 19.0347 52.347 18.992C52.987 18.9493 53.627 18.864 54.267 18.736C54.9497 18.608 55.4617 18.4587 55.803 18.288C56.0163 18.16 56.1443 18.096 56.187 18.096C56.443 18.096 56.443 18.352 56.187 18.864C55.9737 19.3333 55.5897 19.824 55.035 20.336C54.523 20.8053 53.9257 21.04 53.243 21.04C51.1523 21.04 49.3817 20.9973 47.931 20.912C46.523 20.8267 44.9443 20.784 43.195 20.784C42.7683 20.784 42.3203 20.784 41.851 20.784C41.3817 20.784 40.8697 20.8053 40.315 20.848C39.8883 20.8907 39.5897 21.0613 39.419 21.36C38.9923 22.128 38.6083 22.832 38.267 23.472C37.9683 24.112 37.5843 24.8587 37.115 25.712C36.7737 26.352 36.347 27.184 35.835 28.208C35.3657 29.1893 34.939 30.2133 34.555 31.28C34.171 32.304 33.979 33.2 33.979 33.968C33.979 35.2907 34.5977 36.208 35.835 36.72C37.0723 37.1893 38.587 37.4453 40.379 37.488C42.8537 37.488 45.2857 37.2533 47.675 36.784C50.107 36.272 52.3683 35.44 54.459 34.288C56.5923 33.0933 58.4483 31.4933 60.027 29.488C60.1123 29.4027 60.1763 29.36 60.219 29.36C60.347 29.36 60.4323 29.488 60.475 29.744C60.5177 29.9573 60.4963 30.128 60.411 30.256C59.0883 31.8773 57.8083 33.456 56.571 34.992C55.3337 36.4853 54.0963 37.424 52.859 37.808C51.963 38.064 50.5123 38.2773 48.507 38.448C46.5017 38.6613 44.283 38.768 41.851 38.768ZM57.9495 38.448C57.9068 38.4907 57.8642 38.512 57.8215 38.512C57.6935 38.512 57.6295 38.32 57.6295 37.936C57.6295 37.68 57.6935 37.424 57.8215 37.168C57.9922 36.8693 58.2908 36.6987 58.7175 36.656C59.9122 36.5707 61.0428 36.1653 62.1095 35.44C63.1762 34.7147 64.1148 33.8613 64.9255 32.88C65.7362 31.856 66.3122 30.896 66.6535 30L72.5415 15.28C73.3522 13.2747 74.2695 11.3333 75.2935 9.456C76.3602 7.57867 77.7042 6.04267 79.3255 4.848C80.9895 3.65333 83.0802 3.056 85.5975 3.056C86.5788 3.056 87.5602 3.184 88.5415 3.44C89.5655 3.65333 90.4188 4.016 91.1015 4.528C91.7842 5.04 92.1255 5.76533 92.1255 6.704C92.1255 6.832 92.1255 6.96 92.1255 7.088C92.1255 7.216 92.1042 7.344 92.0615 7.472C91.9335 8.15466 91.5495 8.83733 90.9095 9.52C90.3122 10.2027 89.8428 11.056 89.5015 12.08C89.4588 12.3787 89.2668 12.528 88.9255 12.528C88.6268 12.528 88.5628 12.336 88.7335 11.952C89.0748 11.44 89.3308 10.8427 89.5015 10.16C89.7148 9.43467 89.8215 8.70933 89.8215 7.984C89.8215 6.87466 89.5655 5.89333 89.0535 5.04C88.5415 4.18666 87.6668 3.76 86.4295 3.76C85.3202 3.76 84.1895 4.08 83.0375 4.72C81.8855 5.36 80.8828 6.46933 80.0295 8.048L68.1895 29.872C67.0802 31.92 66.0562 33.392 65.1175 34.288C64.2215 35.1413 63.4748 35.6747 62.8775 35.888H78.3015C80.3495 35.888 82.2482 35.824 83.9975 35.696C85.7468 35.568 86.8135 35.248 87.1975 34.736C87.6242 34.1387 87.8375 33.4987 87.8375 32.816C87.8375 31.7493 87.2615 30.96 86.1095 30.448C85.9815 30.3627 85.9175 30.2773 85.9175 30.192C85.9175 30.1067 85.9602 30.0213 86.0455 29.936C86.1735 29.8507 86.3228 29.8507 86.4935 29.936C86.8775 30.1067 87.3255 30.4907 87.8375 31.088C88.3922 31.6427 88.9042 32.2613 89.3735 32.944C89.8428 33.584 90.1415 34.096 90.2695 34.48C90.3975 34.864 90.4615 35.248 90.4615 35.632C90.4615 37.3813 88.9468 38.256 85.9175 38.256C83.5282 38.256 80.9682 38.1707 78.2375 38C75.5068 37.8293 72.7975 37.6373 70.1095 37.424C67.4642 37.2107 64.9682 37.0613 62.6215 36.976C61.7255 36.8907 60.8295 37.0187 59.9335 37.36C59.0802 37.6587 58.4188 38.0213 57.9495 38.448ZM92.9495 38.448C92.9068 38.4907 92.8642 38.512 92.8215 38.512C92.6935 38.512 92.6295 38.32 92.6295 37.936C92.6295 37.68 92.6935 37.424 92.8215 37.168C92.9922 36.8693 93.2908 36.6987 93.7175 36.656C94.9122 36.5707 96.0428 36.1653 97.1095 35.44C98.1762 34.7147 99.1148 33.8613 99.9255 32.88C100.736 31.856 101.312 30.896 101.654 30L107.542 15.28C108.352 13.2747 109.27 11.3333 110.294 9.456C111.36 7.57867 112.704 6.04267 114.326 4.848C115.99 3.65333 118.08 3.056 120.598 3.056C121.579 3.056 122.56 3.184 123.542 3.44C124.566 3.65333 125.419 4.016 126.102 4.528C126.784 5.04 127.126 5.76533 127.126 6.704C127.126 6.832 127.126 6.96 127.126 7.088C127.126 7.216 127.104 7.344 127.062 7.472C126.934 8.15466 126.55 8.83733 125.91 9.52C125.312 10.2027 124.843 11.056 124.502 12.08C124.459 12.3787 124.267 12.528 123.926 12.528C123.627 12.528 123.563 12.336 123.734 11.952C124.075 11.44 124.331 10.8427 124.502 10.16C124.715 9.43467 124.822 8.70933 124.822 7.984C124.822 6.87466 124.566 5.89333 124.054 5.04C123.542 4.18666 122.667 3.76 121.43 3.76C120.32 3.76 119.19 4.08 118.038 4.72C116.886 5.36 115.883 6.46933 115.03 8.048L103.19 29.872C102.08 31.92 101.056 33.392 100.118 34.288C99.2215 35.1413 98.4748 35.6747 97.8775 35.888H113.302C115.35 35.888 117.248 35.824 118.998 35.696C120.747 35.568 121.814 35.248 122.198 34.736C122.624 34.1387 122.838 33.4987 122.838 32.816C122.838 31.7493 122.262 30.96 121.11 30.448C120.982 30.3627 120.918 30.2773 120.918 30.192C120.918 30.1067 120.96 30.0213 121.046 29.936C121.174 29.8507 121.323 29.8507 121.494 29.936C121.878 30.1067 122.326 30.4907 122.838 31.088C123.392 31.6427 123.904 32.2613 124.374 32.944C124.843 33.584 125.142 34.096 125.27 34.48C125.398 34.864 125.462 35.248 125.462 35.632C125.462 37.3813 123.947 38.256 120.918 38.256C118.528 38.256 115.968 38.1707 113.238 38C110.507 37.8293 107.798 37.6373 105.11 37.424C102.464 37.2107 99.9682 37.0613 97.6215 36.976C96.7255 36.8907 95.8295 37.0187 94.9335 37.36C94.0802 37.6587 93.4188 38.0213 92.9495 38.448ZM145.166 41.136C144.824 41.136 144.547 41.072 144.333 40.944C144.12 40.8587 144.035 40.6453 144.078 40.304C144.078 40.176 144.142 39.984 144.27 39.728C144.398 39.472 144.483 39.28 144.526 39.152C144.739 38.5547 144.931 37.9573 145.102 37.36C145.272 36.72 145.443 36.1227 145.614 35.568C146.211 33.2213 146.766 30.896 147.278 28.592C147.79 26.2453 148.195 23.8987 148.494 21.552C148.579 20.9547 148.643 20.272 148.686 19.504C148.728 18.6933 148.75 17.84 148.75 16.944C148.75 14.896 148.536 12.72 148.11 10.416C147.683 8.112 146.851 6.23466 145.614 4.784H140.75C140.11 4.784 139.214 4.82666 138.062 4.912C136.952 4.99733 135.8 5.18933 134.606 5.488C133.454 5.78666 132.494 6.27733 131.726 6.96C130.958 7.64267 130.616 8.56 130.702 9.712C130.744 10.0533 130.872 10.5227 131.086 11.12C131.299 11.6747 131.448 12.016 131.534 12.144L130.83 12.656C130.574 12.1867 130.254 11.6533 129.87 11.056C129.486 10.416 129.144 9.79733 128.846 9.2C128.547 8.60267 128.376 8.15467 128.334 7.856C128.291 7.42933 128.312 6.87466 128.398 6.192C128.483 5.50933 128.824 4.912 129.422 4.4C130.062 3.84533 130.936 3.48266 132.046 3.312C133.198 3.14133 134.371 3.056 135.566 3.056C136.718 3.056 137.827 3.09867 138.894 3.184C139.96 3.26933 140.835 3.312 141.518 3.312C141.518 3.312 142.008 3.312 142.99 3.312C143.971 3.312 145.208 3.312 146.702 3.312C148.238 3.26933 149.859 3.248 151.566 3.248C153.272 3.248 154.83 3.248 156.238 3.248L154.894 4.912C153.614 4.912 152.334 4.912 151.054 4.912C149.816 4.86933 148.558 4.848 147.278 4.848C148.643 5.744 149.646 6.91733 150.286 8.368C150.968 9.81867 151.416 11.3333 151.63 12.912C151.843 14.4907 151.95 15.9627 151.95 17.328C151.95 17.8827 151.928 18.416 151.886 18.928C151.886 19.44 151.886 19.888 151.886 20.272C151.8 22.2773 151.523 24.688 151.054 27.504C150.584 30.32 149.987 32.9867 149.262 35.504C150.67 33.5413 152.248 31.216 153.998 28.528C155.79 25.7973 157.795 22.9387 160.014 19.952C162.275 16.9227 164.728 14 167.374 11.184C168.44 10.0747 169.571 8.944 170.766 7.792C171.96 6.64 173.24 5.68 174.606 4.912C175.971 4.144 177.443 3.76 179.022 3.76C180.387 3.76 181.432 3.97333 182.158 4.4L181.774 5.104C181.603 5.06133 181.432 5.04 181.262 5.04C181.134 4.99733 180.963 4.976 180.75 4.976C179.555 4.976 178.275 5.33867 176.91 6.064C175.587 6.78933 174.563 7.51466 173.838 8.24C172.515 9.56267 171.491 11.1413 170.766 12.976C170.04 14.768 169.507 16.688 169.166 18.736C168.867 20.7413 168.632 22.7893 168.462 24.88C168.291 26.928 168.12 28.8693 167.95 30.704C167.822 32.5387 167.566 34.1387 167.182 35.504C168.931 33.0293 171.086 30.0853 173.646 26.672C176.248 23.2587 179.214 19.7173 182.542 16.048C185.87 12.336 189.518 8.816 193.486 5.488C194.296 4.80533 195.342 4.03733 196.622 3.184C197.944 2.33067 199.331 1.60533 200.782 1.008C202.275 0.367997 203.683 0.0479965 205.006 0.0479965C206.243 0.0479965 207.096 0.261331 207.566 0.688C208.078 1.11467 208.334 1.66933 208.334 2.352C208.334 3.16266 208.078 4.05866 207.566 5.04C207.096 6.02133 206.734 6.832 206.478 7.472C206.435 7.6 206.243 7.68533 205.902 7.728C205.56 7.77066 205.411 7.70667 205.454 7.536C205.539 7.19467 205.624 6.78933 205.71 6.32C205.838 5.808 205.902 5.296 205.902 4.784C205.902 4.10133 205.774 3.48266 205.518 2.928C205.262 2.37333 204.771 2.05333 204.046 1.968C203.918 1.92533 203.79 1.904 203.662 1.904C203.534 1.904 203.406 1.904 203.278 1.904C202.083 1.904 200.782 2.33067 199.374 3.184C197.966 3.99466 196.344 5.14666 194.51 6.64C190.926 9.49867 187.491 12.656 184.206 16.112C180.92 19.5253 177.806 23.1093 174.862 26.864C173.326 28.784 171.832 30.7253 170.382 32.688C168.931 34.6507 167.587 36.6987 166.35 38.832C166.264 39.0027 166.179 39.1947 166.094 39.408C166.051 39.664 165.987 39.856 165.902 39.984C165.816 40.0693 165.56 40.1973 165.134 40.368C164.707 40.5813 164.28 40.752 163.854 40.88C163.47 41.0507 163.214 41.136 163.086 41.136C162.744 41.136 162.467 41.072 162.254 40.944C162.04 40.8587 161.955 40.6453 161.998 40.304C161.998 40.176 162.062 39.984 162.19 39.728C162.318 39.472 162.403 39.28 162.446 39.152C162.659 38.5547 162.851 37.9573 163.022 37.36C163.192 36.72 163.363 36.1227 163.534 35.568C164.046 33.6907 164.408 31.7067 164.622 29.616C164.878 27.5253 165.112 25.4347 165.326 23.344C165.582 21.2107 165.966 19.1627 166.478 17.2C166.99 15.2373 167.779 13.4667 168.846 11.888C167.992 12.4 166.776 13.6587 165.198 15.664C163.619 17.6267 161.699 20.016 159.438 22.832C158.67 23.7707 157.816 24.944 156.878 26.352C155.939 27.7173 154.979 29.168 153.998 30.704C153.059 32.1973 152.142 33.6693 151.246 35.12C150.392 36.528 149.667 37.7653 149.07 38.832C148.984 39.0027 148.899 39.1947 148.814 39.408C148.771 39.664 148.707 39.856 148.622 39.984C148.536 40.0693 148.216 40.1973 147.662 40.368C147.15 40.5813 146.638 40.752 146.126 40.88C145.614 41.0507 145.294 41.136 145.166 41.136ZM199.476 38.768C198.111 38.768 196.724 38.7253 195.316 38.64C193.908 38.5973 192.521 38.4907 191.156 38.32C188.127 38.064 186.612 37.0827 186.612 35.376C186.612 34.5227 186.953 33.4987 187.636 32.304C189.257 29.36 190.921 26.4373 192.628 23.536C194.335 20.592 196.02 17.648 197.684 14.704C198.196 13.7653 198.857 12.592 199.668 11.184C200.479 9.776 201.289 8.432 202.1 7.152C202.484 6.55467 203.039 5.95733 203.764 5.36C204.489 4.72 205.236 4.31466 206.004 4.144C205.108 4.18667 203.956 4.25067 202.548 4.336C201.183 4.42133 199.775 4.592 198.324 4.848C196.916 5.06133 195.636 5.424 194.484 5.936C193.375 6.40533 192.585 7.06667 192.116 7.92C191.945 8.304 191.796 8.688 191.668 9.072C191.54 9.456 191.476 9.84 191.476 10.224C191.476 11.2053 191.817 11.9093 192.5 12.336C192.543 12.336 192.564 12.3787 192.564 12.464C192.564 12.5493 192.479 12.6347 192.308 12.72C192.18 12.8053 192.052 12.8267 191.924 12.784C191.54 12.5707 191.071 12.0587 190.516 11.248C189.961 10.3947 189.62 9.69066 189.492 9.136C189.364 8.624 189.3 8.15466 189.3 7.728C189.3 6.61867 189.663 5.76533 190.388 5.168C191.113 4.528 192.031 4.08 193.14 3.824C194.249 3.52533 195.38 3.35467 196.532 3.312C197.684 3.22666 198.708 3.184 199.604 3.184C201.865 3.184 204.127 3.16267 206.388 3.12C208.649 3.03466 210.889 2.992 213.108 2.992C214.089 2.992 215.049 2.992 215.988 2.992C216.969 2.992 217.929 3.03466 218.868 3.12C219.935 3.16267 220.66 3.376 221.044 3.76C221.471 4.144 221.684 4.61333 221.684 5.168C221.684 5.85067 221.449 6.64 220.98 7.536C220.553 8.38933 220.148 9.17867 219.764 9.904C219.593 10.2453 219.316 10.5013 218.932 10.672C218.548 10.8 218.399 10.672 218.484 10.288C218.697 9.43467 218.804 8.58133 218.804 7.728C218.804 6.96 218.655 6.27733 218.356 5.68C218.1 5.04 217.588 4.592 216.82 4.336C216.095 4.12267 214.964 4.016 213.428 4.016C212.873 4.016 212.297 4.03733 211.7 4.08C211.145 4.08 210.569 4.10133 209.972 4.144C208.265 4.272 207.113 4.72 206.516 5.488C205.108 7.45067 203.743 9.584 202.42 11.888C201.14 14.1493 199.903 16.304 198.708 18.352C198.665 18.4373 198.644 18.544 198.644 18.672C198.644 18.928 198.836 19.056 199.22 19.056C200.713 19.056 202.313 19.0773 204.02 19.12C205.769 19.1627 207.305 19.1627 208.628 19.12C208.927 19.0773 209.375 19.0347 209.972 18.992C210.612 18.9493 211.252 18.864 211.892 18.736C212.575 18.608 213.087 18.4587 213.428 18.288C213.641 18.16 213.769 18.096 213.812 18.096C214.068 18.096 214.068 18.352 213.812 18.864C213.599 19.3333 213.215 19.824 212.66 20.336C212.148 20.8053 211.551 21.04 210.868 21.04C208.777 21.04 207.007 20.9973 205.556 20.912C204.148 20.8267 202.569 20.784 200.82 20.784C200.393 20.784 199.945 20.784 199.476 20.784C199.007 20.784 198.495 20.8053 197.94 20.848C197.513 20.8907 197.215 21.0613 197.044 21.36C196.617 22.128 196.233 22.832 195.892 23.472C195.593 24.112 195.209 24.8587 194.74 25.712C194.399 26.352 193.972 27.184 193.46 28.208C192.991 29.1893 192.564 30.2133 192.18 31.28C191.796 32.304 191.604 33.2 191.604 33.968C191.604 35.2907 192.223 36.208 193.46 36.72C194.697 37.1893 196.212 37.4453 198.004 37.488C200.479 37.488 202.911 37.2533 205.3 36.784C207.732 36.272 209.993 35.44 212.084 34.288C214.217 33.0933 216.073 31.4933 217.652 29.488C217.737 29.4027 217.801 29.36 217.844 29.36C217.972 29.36 218.057 29.488 218.1 29.744C218.143 29.9573 218.121 30.128 218.036 30.256C216.713 31.8773 215.433 33.456 214.196 34.992C212.959 36.4853 211.721 37.424 210.484 37.808C209.588 38.064 208.137 38.2773 206.132 38.448C204.127 38.6613 201.908 38.768 199.476 38.768ZM215.767 39.216C215.468 39.216 215.233 39.1307 215.062 38.96C214.892 38.832 214.892 38.7253 215.062 38.64C216.001 38.4693 216.812 38.128 217.495 37.616C218.177 37.0613 218.732 36.3787 219.159 35.568C220.055 34.0747 220.929 32.5813 221.783 31.088C222.636 29.552 223.468 28.016 224.279 26.48L230.423 15.152C231.404 13.4027 232.257 11.7173 232.983 10.096C233.751 8.47466 234.348 7.30133 234.775 6.576C235.073 6.02133 235.585 5.53067 236.311 5.104C237.079 4.63467 237.825 4.272 238.551 4.016C238.295 4.016 238.039 4.016 237.783 4.016C237.527 3.97333 237.249 3.952 236.951 3.952C235.628 3.952 234.177 4.03733 232.599 4.208C231.063 4.336 229.548 4.54933 228.055 4.848C226.604 5.14666 225.324 5.552 224.215 6.064C223.105 6.576 222.359 7.19467 221.975 7.92C221.804 8.304 221.655 8.688 221.527 9.072C221.399 9.456 221.335 9.84 221.335 10.224C221.335 11.2053 221.676 11.9093 222.359 12.336C222.401 12.336 222.423 12.3787 222.423 12.464C222.423 12.5493 222.337 12.6347 222.167 12.72C222.039 12.8053 221.911 12.8267 221.783 12.784C221.399 12.5707 220.929 12.0587 220.375 11.248C219.82 10.3947 219.479 9.69066 219.351 9.136C219.223 8.624 219.159 8.15466 219.159 7.728C219.159 6.61867 219.521 5.76533 220.247 5.168C220.972 4.528 221.889 4.08 222.999 3.824C224.108 3.52533 225.239 3.35467 226.391 3.312C227.585 3.22666 228.631 3.184 229.527 3.184C230.892 3.184 232.513 3.184 234.391 3.184C236.268 3.14133 237.996 3.12 239.575 3.12C239.959 3.12 240.385 3.12 240.855 3.12C241.324 3.07733 241.815 3.056 242.327 3.056C243.479 3.056 244.673 3.12 245.911 3.248C247.148 3.376 248.279 3.65333 249.303 4.08C250.327 4.50666 251.116 5.168 251.671 6.064C252.225 7.00267 252.503 8.02666 252.503 9.136C252.503 10.2027 252.289 11.2693 251.863 12.336C251.436 13.4027 250.924 14.32 250.326 15.088C249.943 15.5573 249.495 16.0267 248.983 16.496C248.471 16.9653 247.895 17.4133 247.255 17.84C246.615 18.2667 245.911 18.672 245.143 19.056C244.417 19.3973 243.543 19.6747 242.519 19.888C242.476 19.888 242.433 19.952 242.391 20.08C242.391 20.208 242.433 20.272 242.519 20.272C242.732 20.3147 243.095 20.3787 243.607 20.464C244.161 20.5067 244.652 20.5707 245.079 20.656C246.572 20.9547 247.809 21.5947 248.791 22.576C249.815 23.5147 250.326 24.7947 250.326 26.416C250.326 28.2507 249.836 29.936 248.854 31.472C247.916 33.008 246.7 34.3307 245.207 35.44C243.713 36.5067 242.156 37.3387 240.535 37.936C238.487 38.704 236.14 39.088 233.495 39.088C231.916 39.088 230.273 38.9387 228.567 38.64C226.86 38.3413 225.303 37.8293 223.895 37.104C223.596 36.9333 223.297 36.8053 222.999 36.72C222.7 36.592 222.38 36.528 222.039 36.528C221.441 36.528 220.801 36.6987 220.119 37.04C219.692 37.2107 219.137 37.5307 218.455 38C217.772 38.4693 217.004 38.8533 216.151 39.152C216.065 39.1947 215.937 39.216 215.767 39.216ZM231.447 38.192C232.556 38.192 233.665 38.0853 234.775 37.872C235.884 37.616 236.887 37.3173 237.783 36.976C239.361 36.3787 240.812 35.5467 242.135 34.48C243.457 33.3707 244.524 32.0693 245.335 30.576C246.188 29.04 246.615 27.3333 246.615 25.456C246.615 24.2187 246.295 23.28 245.655 22.64C245.015 21.9573 244.204 21.488 243.223 21.232C242.241 20.976 241.217 20.848 240.151 20.848C239.34 20.848 238.572 20.8907 237.847 20.976C237.121 21.0613 236.46 21.168 235.863 21.296C234.668 21.5093 233.601 21.744 232.663 22C232.492 21.9147 232.513 21.7653 232.727 21.552C232.94 21.296 233.217 21.0187 233.559 20.72C233.943 20.4213 234.241 20.1867 234.455 20.016C234.54 19.9307 234.711 19.8027 234.967 19.632C235.265 19.4187 235.5 19.312 235.671 19.312C237.761 19.312 239.617 19.184 241.239 18.928C242.903 18.672 244.332 18.0533 245.527 17.072C246.721 16.048 247.703 14.4693 248.471 12.336C248.855 11.2267 249.047 10.1387 249.047 9.072C249.047 7.83466 248.748 6.768 248.151 5.872C247.553 4.93333 246.593 4.37866 245.271 4.208C245.1 4.16533 244.908 4.144 244.695 4.144C244.481 4.144 244.268 4.144 244.055 4.144C243.244 4.144 242.348 4.25066 241.367 4.464C240.428 4.67733 239.724 5.08266 239.255 5.68C238.188 7.088 237.164 8.688 236.183 10.48C235.201 12.2293 234.263 14.0213 233.367 15.856C232.471 17.648 231.617 19.3333 230.807 20.912C229.825 22.832 228.823 24.7733 227.799 26.736C226.775 28.6987 225.772 30.6827 224.791 32.688C224.535 33.2 224.407 33.6907 224.407 34.16C224.407 35.0133 224.94 35.8453 226.007 36.656C226.732 37.2107 227.564 37.616 228.503 37.872C229.484 38.0853 230.465 38.192 231.447 38.192Z" fill="black"/>
</svg>
