<svg width="40" height="40" viewBox="0 0 40 40" fill="none" xmlns="http://www.w3.org/2000/svg">
<path d="M19.976 0.00429622C19.9353 0.0117256 19.8945 0.0228743 19.8574 0.0340231C19.4165 0.134353 19.1052 0.531951 19.1163 0.985284V6.69285C19.1126 7.03471 19.2905 7.35427 19.5869 7.52892C19.8834 7.69986 20.2465 7.69986 20.543 7.52892C20.8395 7.35428 21.0173 7.03471 21.0136 6.69285V0.985284C21.0247 0.710313 20.9136 0.44648 20.7172 0.260689C20.5171 0.0711792 20.2466 -0.0217113 19.976 0.00429622ZM6.4575 5.59296C6.10175 5.65613 5.81641 5.91623 5.71635 6.26182C5.6163 6.61111 5.72006 6.98269 5.98316 7.22794L10.015 11.2708C10.2448 11.5532 10.6116 11.6833 10.9674 11.6015C11.3194 11.5198 11.5974 11.2411 11.6789 10.8881C11.7604 10.5314 11.6307 10.1635 11.3491 9.93309L7.31723 5.89023C7.12083 5.67843 6.83549 5.57067 6.54644 5.59296C6.51679 5.59296 6.48714 5.59296 6.4575 5.59296ZM33.376 5.59296C33.161 5.62268 32.9609 5.73044 32.8127 5.89022L28.7809 9.93308C28.4992 10.1635 28.3695 10.5313 28.451 10.8881C28.5326 11.2411 28.8105 11.5198 29.1625 11.6015C29.5183 11.6833 29.8852 11.5532 30.1149 11.2708L34.1468 7.22793C34.4432 6.94553 34.5285 6.50334 34.3543 6.13176C34.1764 5.75646 33.7836 5.54094 33.376 5.59296ZM19.976 10.4979C19.9464 10.5053 19.9167 10.5165 19.8871 10.5276C19.8278 10.5313 19.7685 10.5425 19.7092 10.5573C19.6981 10.5685 19.6907 10.5759 19.6796 10.5871C14.6472 10.8026 10.5783 14.9123 10.5783 20.0105C10.5783 25.2462 14.8436 29.5231 20.065 29.5231C25.2864 29.5231 29.5517 25.2462 29.5517 20.0105C29.5517 14.9309 25.5161 10.836 20.5097 10.5871C20.4763 10.5871 20.4541 10.5573 20.4207 10.5573C20.3244 10.5202 20.2243 10.5016 20.1243 10.4979C20.1057 10.4979 20.0835 10.4979 20.065 10.4979C20.0353 10.4979 20.0057 10.4979 19.976 10.4979ZM20.0057 12.4004C20.0242 12.4004 20.0464 12.4004 20.065 12.4004C20.0946 12.4004 20.1243 12.4004 20.1539 12.4004C24.3043 12.4487 27.6543 15.8376 27.6543 20.0105C27.6543 24.2169 24.2599 27.6206 20.065 27.6206C15.8738 27.6206 12.4756 24.2169 12.4756 20.0105C12.4756 15.8264 15.8404 12.4339 20.0057 12.4004ZM0.824777 19.0592C0.30227 19.1336 -0.0645996 19.6203 0.00951993 20.1443C0.0836394 20.6682 0.569083 21.0361 1.0916 20.9618H6.78361C7.12455 20.9655 7.44323 20.7871 7.61741 20.4899C7.78787 20.1926 7.78787 19.8284 7.61741 19.5312C7.44324 19.2339 7.12455 19.0555 6.78361 19.0593H1.0916C1.06195 19.0593 1.03231 19.0593 1.00266 19.0593C0.973016 19.0593 0.943371 19.0593 0.913725 19.0593C0.884079 19.0593 0.854423 19.0592 0.824777 19.0592ZM33.0795 19.0592C32.557 19.1336 32.1901 19.6203 32.2643 20.1443C32.3384 20.6682 32.8238 21.0361 33.3463 20.9618H39.0384C39.3793 20.9655 39.698 20.7871 39.8721 20.4899C40.0426 20.1926 40.0426 19.8284 39.8721 19.5312C39.698 19.2339 39.3793 19.0555 39.0384 19.0593H33.3463C33.3167 19.0593 33.287 19.0593 33.2574 19.0593C33.2278 19.0593 33.1981 19.0593 33.1685 19.0593C33.1388 19.0593 33.1092 19.0592 33.0795 19.0592ZM10.5783 28.4529C10.3633 28.4827 10.1632 28.5904 10.015 28.7502L5.98316 32.7931C5.70153 33.0235 5.57183 33.3913 5.65335 33.7481C5.73488 34.1011 6.01281 34.3798 6.36485 34.4615C6.7206 34.5433 7.08747 34.4132 7.31723 34.1308L11.3491 30.0879C11.6307 29.8167 11.7159 29.3968 11.564 29.0363C11.4158 28.6759 11.0563 28.4455 10.6672 28.4529C10.6376 28.4529 10.6079 28.4529 10.5783 28.4529ZM29.2552 28.4529C28.8994 28.5161 28.6141 28.7762 28.514 29.1218C28.414 29.4711 28.5178 29.8427 28.7809 30.0879L32.8127 34.1308C33.0425 34.4132 33.4093 34.5433 33.7651 34.4615C34.1171 34.3798 34.3951 34.1011 34.4766 33.7481C34.5581 33.3913 34.4284 33.0235 34.1468 32.7931L30.1149 28.7502C29.9371 28.5607 29.6925 28.4567 29.4331 28.453C29.4034 28.453 29.3738 28.453 29.3441 28.453C29.3145 28.453 29.2848 28.4529 29.2552 28.4529ZM19.976 32.3472C19.9353 32.3546 19.8945 32.3658 19.8574 32.3769C19.4165 32.4772 19.1052 32.8748 19.1163 33.3282V39.0357C19.1126 39.3776 19.2905 39.6972 19.5869 39.8718C19.8834 40.0427 20.2465 40.0427 20.543 39.8718C20.8395 39.6972 21.0173 39.3776 21.0136 39.0357V33.3282C21.0247 33.0532 20.9136 32.7894 20.7172 32.6036C20.5171 32.4141 20.2466 32.3212 19.976 32.3472Z" fill="white"/>
</svg>
