<svg width="42" height="40" viewBox="0 0 42 40" fill="none" xmlns="http://www.w3.org/2000/svg">
<path d="M21 0C9.402 0 0 7.611 0 17C0 22.99 3.836 28.245 9.618 31.273L7.399 38.67C7.264 39.119 7.765 39.49 8.155 39.23L16.577 33.615C18.004 33.863 19.482 34 21 34C32.598 34 42 26.389 42 17C42 7.611 32.598 0 21 0Z" fill="#263238"/>
<path d="M12 14H6C5.448 14 5 13.552 5 13C5 12.448 5.448 12 6 12H12C12.552 12 13 12.448 13 13C13 13.552 12.552 14 12 14Z" fill="#FFCA28"/>
<path d="M22 22V13C22 12.448 22.448 12 23 12C23.552 12 24 12.448 24 13V22C24 22.552 23.552 23 23 23C22.448 23 22 22.552 22 22Z" fill="#FFCA28"/>
<path d="M29 22V13C29 12.448 29.448 12 30 12C30.552 12 31 12.448 31 13V22C31 22.552 30.552 23 30 23C29.448 23 29 22.552 29 22Z" fill="#FFCA28"/>
<path d="M29.6206 17.207L34.5346 12.293C34.9256 11.902 35.5586 11.902 35.9486 12.293C36.3396 12.684 36.3396 13.317 35.9486 13.707L31.0346 18.621C30.6436 19.012 30.0106 19.012 29.6206 18.621C29.2306 18.231 29.2306 17.598 29.6206 17.207Z" fill="#FFCA28"/>
<path d="M33.0777 16.6649L36.7857 21.3819C37.1267 21.8159 37.0517 22.4449 36.6177 22.7859C36.1837 23.1269 35.5547 23.0519 35.2137 22.6179L31.5057 17.9009C31.1647 17.4669 31.2397 16.8379 31.6737 16.4969C32.1077 16.1559 32.7367 16.2309 33.0777 16.6649Z" fill="#FFCA28"/>
<path d="M27 23H23C22.448 23 22 22.552 22 22C22 21.448 22.448 21 23 21H27C27.552 21 28 21.448 28 22C28 22.552 27.552 23 27 23Z" fill="#FFCA28"/>
<path d="M20.9327 21.642L17.7117 12.642C17.5667 12.263 17.2147 12.031 16.8337 12.013C16.7227 12.008 16.2937 12.01 16.1927 12.012C15.8007 12.019 15.4357 12.253 15.2867 12.642L12.0657 21.642C11.8677 22.158 12.1257 22.736 12.6417 22.934C13.1577 23.132 13.7357 22.874 13.9337 22.358L14.4197 21H18.5797L19.0657 22.358C19.2637 22.874 19.8417 23.131 20.3577 22.934C20.8737 22.737 21.1307 22.157 20.9327 21.642ZM15.1357 19L16.4997 15.188L17.8637 19H15.1357Z" fill="#FFCA28"/>
<path d="M10 14H8V22C8 22.552 8.448 23 9 23C9.552 23 10 22.552 10 22V14Z" fill="#FFCA28"/>
</svg>
