<svg width="70" height="70" viewBox="0 0 70 70" fill="none" xmlns="http://www.w3.org/2000/svg">
<circle cx="35" cy="35" r="35" fill="black"/>
<path d="M28.3333 31.6666H28.35M35 31.6666H35.0167M41.6667 31.6666H41.6833M30 41.6666H23.3333C22.4493 41.6666 21.6014 41.3154 20.9763 40.6903C20.3512 40.0652 20 39.2173 20 38.3333V25C20 24.1159 20.3512 23.2681 20.9763 22.6429C21.6014 22.0178 22.4493 21.6666 23.3333 21.6666H46.6667C47.5507 21.6666 48.3986 22.0178 49.0237 22.6429C49.6488 23.2681 50 24.1159 50 25V38.3333C50 39.2173 49.6488 40.0652 49.0237 40.6903C48.3986 41.3154 47.5507 41.6666 46.6667 41.6666H38.3333L30 50V41.6666Z" stroke="white" stroke-width="2" stroke-linecap="round" stroke-linejoin="round"/>
</svg>
